HIERARCHY
ROOT Hips
{
	OFFSET 0.00000 0.00000 0.00000
	CHANNELS 6 Xposition Yposition Zposition Zrotation Yrotation Xrotation 
	JOINT LHipJoint
	{
		OFFSET 0 0 0
		CHANNELS 3 Zrotation Yrotation Xrotation
		JOINT LeftUpLeg
		{
			OFFSET 1.75344 -1.53157 0.77399
			CHANNELS 3 Zrotation Yrotation Xrotation
			JOINT LeftLeg
			{
				OFFSET 2.25415 -6.19323 0.00000
				CHANNELS 3 Zrotation Yrotation Xrotation
				JOINT LeftFoot
				{
					OFFSET 2.30342 -6.32861 0.00000
					CHANNELS 3 Zrotation Yrotation Xrotation
					JOINT LeftToeBase
					{
						OFFSET 0.10958 -0.30108 1.49206
						CHANNELS 3 Zrotation Yrotation Xrotation
						End Site
						{
							OFFSET 0.00000 -0.00000 0.77783
						}
					}
				}
			}
		}
	}
	JOINT RHipJoint
	{
		OFFSET 0 0 0
		CHANNELS 3 Zrotation Yrotation Xrotation
		JOINT RightUpLeg
		{
			OFFSET -1.81912 -1.53156 0.77399
			CHANNELS 3 Zrotation Yrotation Xrotation
			JOINT RightLeg
			{
				OFFSET -2.22882 -6.12365 0.00000
				CHANNELS 3 Zrotation Yrotation Xrotation
				JOINT RightFoot
				{
					OFFSET -2.21943 -6.09785 0.00000
					CHANNELS 3 Zrotation Yrotation Xrotation
					JOINT RightToeBase
					{
						OFFSET -0.18931 -0.52012 1.59379
						CHANNELS 3 Zrotation Yrotation Xrotation
						End Site
						{
							OFFSET -0.00000 -0.00000 0.84686
						}
					}
				}
			}
		}
	}
	JOINT LowerBack
	{
		OFFSET 0 0 0
		CHANNELS 3 Zrotation Yrotation Xrotation
		JOINT Spine
		{
			OFFSET -0.00200 1.66634 -0.14248
			CHANNELS 3 Zrotation Yrotation Xrotation
			JOINT Spine1
			{
				OFFSET -0.00875 1.64542 0.09514
				CHANNELS 3 Zrotation Yrotation Xrotation
				JOINT Neck
				{
					OFFSET 0 0 0
					CHANNELS 3 Zrotation Yrotation Xrotation
					JOINT Neck1
					{
						OFFSET 0.02257 1.59605 0.00839
						CHANNELS 3 Zrotation Yrotation Xrotation
						JOINT Head
						{
							OFFSET -0.10214 1.57530 -0.23335
							CHANNELS 3 Zrotation Yrotation Xrotation
							End Site
							{
								OFFSET -0.03588 1.60717 -0.08062
							}
						}
					}
				}
				JOINT LeftShoulder
				{
					OFFSET 0 0 0
					CHANNELS 3 Zrotation Yrotation Xrotation
					JOINT LeftArm
					{
						OFFSET 2.54983 1.10186 0.40078
						CHANNELS 3 Zrotation Yrotation Xrotation
						JOINT LeftForeArm
						{
							OFFSET 4.28840 -0.00000 0.00000
							CHANNELS 3 Zrotation Yrotation Xrotation
							JOINT LeftHand
							{
								OFFSET 3.06552 -0.00000 -0.00000
								CHANNELS 3 Zrotation Yrotation Xrotation
								JOINT LeftFingerBase
								{
									OFFSET 0 0 0
									CHANNELS 3 Zrotation Yrotation Xrotation
									JOINT LeftHandIndex1
									{
										OFFSET 0.75304 -0.00000 0.00000
										CHANNELS 3 Zrotation Yrotation Xrotation
										End Site
										{
											OFFSET 0.60712 -0.00000 0.00000
										}
									}
								}
								JOINT LThumb
								{
									OFFSET 0 0 0
									CHANNELS 3 Zrotation Yrotation Xrotation
									End Site
									{
										OFFSET 0.61639 -0.00000 0.61639
									}
								}
							}
						}
					}
				}
				JOINT RightShoulder
				{
					OFFSET 0 0 0
					CHANNELS 3 Zrotation Yrotation Xrotation
					JOINT RightArm
					{
						OFFSET -2.60909 1.35448 0.21802
						CHANNELS 3 Zrotation Yrotation Xrotation
						JOINT RightForeArm
						{
							OFFSET -4.52172 -0.00000 -0.00000
							CHANNELS 3 Zrotation Yrotation Xrotation
							JOINT RightHand
							{
								OFFSET -2.89140 -0.00000 0.00000
								CHANNELS 3 Zrotation Yrotation Xrotation
								JOINT RightFingerBase
								{
									OFFSET 0 0 0
									CHANNELS 3 Zrotation Yrotation Xrotation
									JOINT RightHandIndex1
									{
										OFFSET -0.68054 -0.00000 0.00000
										CHANNELS 3 Zrotation Yrotation Xrotation
										End Site
										{
											OFFSET -0.54867 -0.00000 0.00000
										}
									}
								}
								JOINT RThumb
								{
									OFFSET 0 0 0
									CHANNELS 3 Zrotation Yrotation Xrotation
									End Site
									{
										OFFSET -0.55705 -0.00000 0.55705
									}
								}
							}
						}
					}
				}
			}
		}
	}
}
MOTION
Frames: 7
Frame Time: .0083333
9.0975 15.2957 19.9075 -177.5250 4.9439 196.4560 0.0000 0.0000 0.0000 -16.5483 -10.6640 -25.9448 6.3825 14.7890 46.4981 1.0472 -4.4812 -18.3646 2.6833 -10.1638 -29.5088 0.0000 0.0000 0.0000 24.9353 7.9572 -22.6791 -4.9776 -13.3585 40.7257 -0.2966 -9.9211 -18.2077 -0.1674 2.6356 -7.2657 0.7334 3.0218 12.9287 -0.6075 4.1364 -4.0095 -2.0107 1.8882 -11.5496 -0.9697 0.5351 -11.8014 -1.5027 -0.0806 -7.2590 -0.3016 -0.3969 -0.3217 0.0000 0.0000 0.0000 -53.2484 7.1868 37.8377 47.8670 -52.0982 -24.4808 -0.0000 -0.0000 13.7884 -13.1404 -39.2171 8.3963 -7.1250 0.0000 -0.0000 -24.2883 -7.0269 29.7241 0.0000 0.0000 0.0000 43.4720 52.1064 24.1982 -46.9226 51.6763 -23.7377 0.0000 0.0000 5.0034 4.3880 -62.3632 -3.8890 7.1250 -0.0000 -0.0000 81.4017 70.6932 101.1355
9.1056 15.5185 19.7261 -177.8490 4.5636 195.0780 0.0000 0.0000 0.0000 -17.3961 -9.5538 -22.5206 5.5711 13.9994 43.2350 0.6388 -4.0451 -14.2676 2.5428 -9.9152 -28.7027 0.0000 0.0000 0.0000 24.8491 6.1123 -19.2615 -4.1816 -12.3983 37.1559 -0.0158 -9.7654 -14.1724 -0.1149 2.1853 -6.0180 0.5411 3.1707 12.8804 -0.6518 4.3186 -4.4642 -2.0121 1.9814 -12.0423 -0.9238 0.3293 -11.2710 -1.5696 -0.0785 -5.1927 -0.3337 -0.3027 0.2426 0.0000 -0.0000 0.0000 -52.6309 9.1611 40.2347 48.2350 -52.2583 -24.7714 -0.0000 -0.0000 13.2705 -15.7510 -37.6653 9.7786 -7.1250 0.0000 -0.0000 -25.5711 -5.6277 31.0895 0.0000 -0.0000 0.0000 43.1970 50.5399 24.9598 -47.1806 51.7931 -23.9403 0.0000 0.0000 5.5079 5.1175 -61.2574 -4.4897 7.1250 -0.0000 -0.0000 98.0199 -70.4508 -77.9438
9.1120 15.7603 19.5416 -178.2050 4.0297 193.7350 0.0000 0.0000 0.0000 -18.1332 -8.6938 -19.1092 4.7748 13.1256 39.8407 0.2837 -3.4639 -9.4663 2.0594 -8.9888 -25.7603 0.0000 0.0000 0.0000 24.6297 4.5621 -15.8461 -3.4266 -11.3555 33.4884 0.2382 -10.2190 -9.6085 -0.1005 2.0445 -5.6285 0.0928 3.3147 13.5818 -0.5273 4.4973 -5.3983 -1.7683 2.0869 -13.5891 -1.0069 0.0943 -10.7343 -1.8344 -0.0861 -2.4481 -0.4079 -0.2240 1.0296 -0.0000 0.0000 0.0000 -52.5908 11.7868 42.6462 48.2698 -52.2734 -24.7990 -0.0000 -0.0000 13.2082 -18.8801 -35.9251 11.3460 -7.1250 0.0000 -0.0000 -27.1303 -4.1557 32.8365 -0.0000 0.0000 0.0000 43.3702 48.1945 26.8165 -46.9688 51.6973 -23.7739 0.0000 0.0000 5.9523 5.2960 -60.1098 -4.5947 7.1250 -0.0000 -0.0000 94.8409 -70.4646 -74.4402
9.1203 16.0194 19.3649 -178.3270 3.2013 192.5450 0.0000 0.0000 0.0000 -18.4215 -8.2240 -15.9156 4.0102 12.1739 36.3500 0.0511 -2.0197 -4.0443 1.9956 -8.8570 -25.3490 0.0000 0.0000 0.0000 24.6649 3.6239 -12.5402 -2.7405 -10.2626 29.8315 0.4486 -11.7714 -4.4303 -0.1386 2.3993 -6.6104 0.2823 3.3766 11.9980 -0.4980 4.6102 -5.0541 -1.7355 2.1608 -12.2099 -1.0736 -0.0670 -10.3253 -2.0021 -0.1654 -1.0693 -0.4552 -0.2346 1.4056 -0.0000 0.0000 0.0000 -52.8165 12.0108 43.8088 47.2350 -51.8176 -23.9830 -0.0000 -0.0000 13.2557 -21.4707 -34.1827 12.4610 -7.1250 0.0000 -0.0000 -28.4631 -2.7431 34.2597 -0.0000 0.0000 0.0000 42.0184 47.2937 26.6435 -46.0123 51.2549 -23.0256 0.0000 0.0000 6.5379 5.3186 -59.7265 -4.5966 7.1250 -0.0000 -0.0000 93.7740 -70.4664 -73.2769
9.1313 16.3025 19.1802 -178.5940 2.1617 191.3430 0.0000 0.0000 0.0000 -18.7243 -8.5085 -12.7261 3.2947 11.1575 32.8129 0.0049 0.9474 1.3229 1.2894 -7.1950 -20.2943 0.0000 0.0000 0.0000 24.5533 3.3542 -9.0277 -2.1262 -9.1241 26.1842 0.5931 -14.7083 0.8366 -0.0947 1.9841 -5.4618 0.3257 3.3611 10.0059 -0.4566 4.5785 -4.4767 -1.5353 2.1838 -10.3644 -1.0586 -0.0676 -9.8517 -2.2616 -0.0684 0.1309 -0.5378 -0.1714 1.7157 -0.0000 -0.0000 0.0000 -53.4011 12.1751 44.5781 46.1062 -51.2990 -23.0988 -0.0000 -0.0000 13.6935 -23.3104 -32.8884 13.1687 -7.1250 0.0000 -0.0000 -29.4244 -1.7400 35.2924 -0.0000 -0.0000 0.0000 40.6657 46.5536 26.4663 -44.7071 50.6242 -22.0121 0.0000 0.0000 7.3824 5.3440 -59.3564 -4.6012 7.1250 -0.0000 -0.0000 92.7444 -70.4603 -72.1526
9.1385 16.5843 18.9986 -179.0220 0.9984 190.1680 0.0000 0.0000 0.0000 -19.2380 -9.4464 -9.3372 2.6570 10.1180 29.3597 0.0963 5.0637 6.1215 1.0945 -6.6482 -18.6773 0.0000 0.0000 0.0000 24.2568 3.8381 -5.4588 -1.6056 -7.9911 22.6871 0.8244 -19.6048 5.1713 -0.0006 -0.1526 0.4193 -0.0437 3.2488 9.5072 -0.3354 4.4135 -4.7744 -1.1514 2.1445 -10.4410 -0.9203 0.0967 -9.1895 -2.6451 0.2764 2.2440 -0.6745 0.0058 2.3009 0.0000 0.0000 0.0000 -54.2702 13.9726 45.6379 45.2943 -50.9119 -22.4670 -0.0000 -0.0000 14.4369 -25.7544 -31.1597 14.0160 -7.1250 0.0000 -0.0000 -30.7086 -0.4738 36.7179 0.0000 0.0000 0.0000 40.6665 44.8076 28.0748 -43.4426 49.9823 -21.0392 0.0000 0.0000 8.5407 5.5863 -58.8454 -4.7847 7.1250 -0.0000 -0.0000 91.3736 -70.3730 -70.5729
9.1419 16.8653 18.8297 -179.3420 -0.2883 189.1620 0.0000 0.0000 0.0000 -19.6829 -11.1131 -6.0552 2.1076 9.0866 26.0666 0.2451 9.7618 10.4367 0.3786 -3.9517 -10.9407 0.0000 0.0000 0.0000 24.1639 5.2877 -1.9813 -1.1939 -6.9334 19.5182 1.6622 -26.6832 6.1691 -0.5037 -4.5495 12.6281 -0.1286 3.1709 9.1894 -0.3408 4.1248 -5.1458 -1.0390 1.9353 -10.6736 -0.5820 0.3566 -8.6300 -2.9228 0.6885 4.3332 -0.8118 0.2012 2.9107 0.0000 0.0000 0.0000 -55.0687 15.7627 46.4357 44.3063 -50.4241 -21.7027 -0.0000 -0.0000 14.9425 -28.0268 -28.8170 14.3905 -7.1250 0.0000 -0.0000 -32.0025 1.2854 37.8578 0.0000 0.0000 0.0000 41.2438 42.8269 29.8168 -42.4969 49.4816 -20.3175 0.0000 0.0000 9.9295 5.4986 -58.2516 -4.6798 7.1250 -0.0000 -0.0000 89.7017 -70.3765 -68.7954
